<?xml version="1.0" standalone="no"?>
<!-- Generator: Adobe Fireworks 10, Export SVG Extension by Aaron Beall (http://fireworks.abeall.com) . Version: 0.6.1  -->
<!DOCTYPE svg PUBLIC "-//W3C//DTD SVG 1.1//EN" "http://www.w3.org/Graphics/SVG/1.1/DTD/svg11.dtd">
<svg id="Untitled-%u30DA%u30FC%u30B8%201" viewBox="0 0 150 117" style="background-color:#ffffff00" version="1.1"
	xmlns="http://www.w3.org/2000/svg" xmlns:xlink="http://www.w3.org/1999/xlink" xml:space="preserve"
	x="0px" y="0px" width="150px" height="117px"
>
	<g id="%u30EC%u30A4%u30E4%u30FC%201">
		<path d="M 35.0442 0.0007 C 52.4201 -0.1422 47.2221 20.7122 48.9822 35.3525 C 49.2841 37.8643 48.204 40.8572 49.1813 43.0464 C 53.1632 42.9579 57.6109 42.8032 61.5928 42.7147 C 62.731 41.5604 63.8162 38.6722 64.31 36.2711 C 65.8967 28.5581 60.7152 11.4694 70.3539 4.7762 C 73.2467 2.7674 76.1816 0.6063 80.7078 0.266 C 81.8582 2.9188 83.4734 5.6387 84.2255 8.1588 C 84.6458 10.0377 85.5309 13.1115 86.2831 17.3782 C 86.4957 22.9047 87.0131 26.6379 87.0712 31.9707 C 87.1226 36.6933 87.946 42.1945 89.2034 46.1637 C 100.7184 45.7735 111.8398 45.2828 120.3981 49.8116 C 125.006 52.25 127.2597 57.5148 131.9467 59.4289 C 133.4639 55.9262 137.6764 56.0565 142.8317 56.2453 C 146.5786 60.9632 150.0314 61.8361 149.9998 70.837 C 149.9949 72.2242 149.9495 74.0901 149.3532 75.2197 C 149.1089 75.6824 148.452 76.3535 148.075 76.2094 C 145.5117 80.4727 143.3388 77.5865 138.8494 78.5309 C 139.1149 82.2446 139.0485 84.6997 139.3139 88.4134 C 138.9199 89.7837 139.0093 90.3923 138.1934 91.5777 C 138.1255 91.6764 136.4634 93.9636 136.3928 94.0613 C 133.2376 98.4372 128.9169 101.3574 124.7786 104.0001 C 112.0954 112.0996 96.4836 116.9984 75.6636 117 C 71.7702 116.9114 67.8756 116.8233 63.9822 116.7347 C 61.947 115.939 59.9112 115.1426 57.876 114.3469 C 57.2566 113.5513 56.637 112.7549 56.0176 111.9592 C 49.0272 111.7825 42.0346 111.6053 35.0442 111.4286 C 15.9571 108.1056 0.0114 102.7578 0 80.388 C 0.1769 76.232 0.0885 73.9318 0.2655 69.7758 C 0.4859 68.12 1.1192 66.6823 3.0453 64.6718 C 4.255 63.4095 6.0475 62.5501 7.7316 61.4695 C 14.1749 57.3345 22.6802 53.728 26.8141 49.3474 C 24.5847 31.2077 25.4404 10.1766 35.0442 0.0007 Z" fill="#fbe5f1"/>
		<image x="0" y="0" width="150" height="117" xlink:href="momowasa.svg.images/image1.png"/>
	</g>
</svg>