<?xml version="1.0" standalone="no"?>
<!-- Generator: Adobe Fireworks 10, Export SVG Extension by Aaron Beall (http://fireworks.abeall.com) . Version: 0.6.1  -->
<!DOCTYPE svg PUBLIC "-//W3C//DTD SVG 1.1//EN" "http://www.w3.org/Graphics/SVG/1.1/DTD/svg11.dtd">
<svg id="Untitled-%u30DA%u30FC%u30B8%201" viewBox="0 0 471 369" style="background-color:#ffffff00" version="1.1"
	xmlns="http://www.w3.org/2000/svg" xmlns:xlink="http://www.w3.org/1999/xlink" xml:space="preserve"
	x="0px" y="0px" width="471px" height="369px"
>
	<defs>
	<clipPath id="mask1">
		<path d="M 282.4369 104.151 C 263.5304 -26.8218 112.7136 -37.7518 75.1397 98.3545 C 54.5009 173.104 115.8126 219.4949 153.5991 261.6828 C 190.2394 302.5955 211.1969 350.7676 211.6116 369 C 220.306 353.567 266.5048 322.1418 315.4492 304.0706 C 368.9655 284.3121 445.6721 276.7812 465.265 201.7543 C 501.0371 64.8033 360.884 4.2218 282.4369 104.151 Z" fill="#cc0066"/>
	</clipPath>
	</defs>
	<path d="M 49.5189 302.0941 C 16.0709 281.5607 -14.8759 313.8404 8.8898 348.201 C 21.9727 367.118 44.1714 362.0493 61.0027 361.5152 C 77.3677 360.9968 92.439 365.4466 96.7107 368.8484 C 94.8282 363.9053 96.4578 347.3346 101.6892 332.6809 C 107.4161 316.6399 120.4373 297.5865 106.8936 278.7565 C 82.2346 244.4685 41.6143 265.1724 49.5189 302.0941 Z" fill="#cc0066"/>
	<image clip-path="url(#mask1)" x="71" y="0" width="400" height="369" xlink:href="usachan.svg.images/image1.png"/>
</svg>