<?xml version="1.0" standalone="no"?>
<!-- Generator: Adobe Fireworks 10, Export SVG Extension by Aaron Beall (http://fireworks.abeall.com) . Version: 0.6.1  -->
<!DOCTYPE svg PUBLIC "-//W3C//DTD SVG 1.1//EN" "http://www.w3.org/Graphics/SVG/1.1/DTD/svg11.dtd">
<svg id="%u540D%u79F0%u672A%u8A2D%u5B9A-1-%u30DA%u30FC%u30B8%201" viewBox="0 0 292 228" style="background-color:#ffffff00" version="1.1"
	xmlns="http://www.w3.org/2000/svg" xmlns:xlink="http://www.w3.org/1999/xlink" xml:space="preserve"
	x="0px" y="0px" width="292px" height="228px"
>
	<g id="%u30EC%u30A4%u30E4%u30FC%201">
		<image visibility="hidden" x="0" y="0" width="292" height="228" xlink:href="momowasa_mono.svg.images/image1.png"/>
		<path d="M 68.1167 2.0014 C 100.8992 1.7327 91.0923 40.9461 94.4131 68.4749 C 94.9827 73.1977 92.945 78.8255 94.7888 82.9419 C 102.3013 82.7755 110.6926 82.4847 118.2051 82.3183 C 120.3525 80.1477 122.3998 74.717 123.3316 70.2021 C 126.3252 55.6991 116.5494 23.5665 134.7343 10.9809 C 140.1922 7.2036 145.7293 3.1401 154.2688 2.5002 C 156.4391 7.4884 159.4865 12.6027 160.9055 17.3414 C 161.6984 20.8744 163.3683 26.6542 164.7874 34.6769 C 165.1884 45.0687 166.1648 52.0884 166.2744 62.1158 C 166.3712 70.996 167.9247 81.3401 170.2971 88.8035 C 192.0219 88.0699 213.0043 87.1472 229.151 95.6629 C 237.8445 100.2479 242.0967 110.1475 250.9394 113.7467 C 253.8019 107.1604 261.7495 107.4054 271.4757 107.7603 C 278.5448 116.6317 285.0592 118.273 284.9995 135.1978 C 284.9903 137.8061 284.9047 141.3147 283.7796 143.4388 C 283.3188 144.3089 282.0794 145.5706 281.3681 145.2998 C 276.532 153.3162 272.4325 147.8891 263.9624 149.6648 C 264.4633 156.6479 264.3381 161.2644 264.839 168.2475 C 264.0955 170.8241 264.2642 171.9685 262.7249 174.1973 C 262.5967 174.3829 259.4608 178.6836 259.3278 178.8673 C 253.3749 187.0956 245.2233 192.5865 237.4156 197.5557 C 213.4866 212.7856 184.0323 221.997 144.752 222 C 137.4065 221.8333 130.0586 221.6677 122.7131 221.5011 C 118.8733 220.005 115.0325 218.5074 111.1927 217.0113 C 110.0242 215.5152 108.8551 214.0177 107.6866 212.5216 C 94.498 212.1893 81.3053 211.8561 68.1167 211.5238 C 32.1056 205.2754 2.0215 195.2197 2 153.1569 C 2.3338 145.3421 2.167 141.017 2.5009 133.2023 C 2.9166 130.0888 4.1116 127.3855 7.7455 123.6051 C 10.0278 121.2316 13.4095 119.6156 16.587 117.5836 C 28.7432 109.8084 44.7899 103.027 52.5893 94.7899 C 48.3831 60.6811 49.9976 21.1355 68.1167 2.0014 Z" fill="#74685b"/>
		<g>
			<path d="M 78.734 161.5729 C 78.0841 162.3644 77.496 162.9086 77.0008 163.222 C 76.5055 163.5353 75.9639 163.6837 75.3758 163.6837 C 74.4318 163.6837 73.6889 163.0571 73.1473 161.7708 C 72.5902 160.5009 72.3271 158.7034 72.3271 156.3617 C 72.3271 153.6242 72.714 151.3319 73.5032 149.5179 C 74.277 147.7039 75.0972 146.7969 75.9639 146.7969 C 76.3663 146.7969 76.7996 147.1597 77.2793 147.8523 C 77.9293 147.1927 78.2698 146.7969 78.2698 146.632 C 78.2698 146.4671 78.1305 146.2692 77.8674 146.0548 C 77.6043 145.8569 77.3103 145.7415 77.0008 145.7415 C 75.9175 145.7415 74.8342 146.6649 73.7663 148.479 C 72.6985 150.3095 71.9557 152.8326 71.5223 156.0319 C 71.3985 156.8894 71.2902 157.4666 71.2128 157.7964 C 71.1354 158.1262 70.8414 158.8518 70.3152 159.9732 C 69.789 161.1111 69.2319 162.0181 68.6129 162.6778 C 67.9939 163.3539 67.4367 163.6837 66.926 163.6837 C 66.4927 163.6837 66.1368 163.5023 65.8427 163.1065 C 65.5332 162.7272 65.3939 162.1995 65.3939 161.5399 C 65.3939 160.8967 65.4713 160.1546 65.657 159.2971 C 65.8272 158.4396 66.2296 157.1203 66.8796 155.3063 C 67.5296 153.5252 67.9474 152.2224 68.1177 151.4144 C 68.2724 150.6063 68.3653 149.8972 68.3653 149.2705 C 68.3653 147.5885 67.901 146.2197 67.0034 145.1808 C 66.0903 144.1583 64.9296 143.6306 63.5368 143.6306 C 61.9273 143.6306 60.5036 144.3232 59.2965 145.692 C 58.0739 147.0772 57.4703 148.6604 57.4703 150.4414 C 57.4703 151.5463 57.7644 152.4533 58.3834 153.1459 C 59.0024 153.8386 59.7607 154.1849 60.6893 154.1849 C 61.7107 154.1849 62.5773 153.7891 63.3047 152.981 C 64.0321 152.173 64.4035 151.2165 64.4035 150.0951 C 64.4035 149.4849 64.2487 148.9572 63.9547 148.5119 C 63.6452 148.0832 63.2737 147.8523 62.8404 147.8523 C 62.4071 147.8523 62.0666 148.0172 61.819 148.3141 C 61.5559 148.6274 61.4321 149.0067 61.4321 149.4684 C 61.4321 149.6498 61.4631 149.7982 61.525 149.9137 L 62.4226 149.9632 C 62.4845 149.2705 62.6392 148.9077 62.8559 148.9077 C 63.0107 148.9077 63.1499 149.0726 63.2583 149.386 C 63.3511 149.6993 63.413 150.0786 63.413 150.5403 C 63.413 151.233 63.1654 151.8267 62.6857 152.3544 C 62.1904 152.8821 61.6488 153.1294 61.0607 153.1294 C 60.3488 153.1294 59.7298 152.8161 59.2191 152.1895 C 58.7084 151.5628 58.4608 150.7547 58.4608 149.7653 C 58.4608 148.3965 58.925 147.2092 59.8691 146.2032 C 60.7976 145.1973 61.9583 144.686 63.3511 144.686 C 64.5737 144.686 65.5487 145.0818 66.276 145.8404 C 67.0034 146.599 67.3748 147.6379 67.3748 148.9242 C 67.3748 149.4849 67.2974 150.1281 67.1427 150.8867 C 66.9879 151.6452 66.5701 152.948 65.9201 154.7621 C 65.2701 156.5926 64.8523 157.9613 64.6666 158.8518 C 64.4809 159.7424 64.4035 160.5339 64.4035 161.2101 C 64.4035 162.2325 64.6511 163.09 65.1463 163.7497 C 65.6415 164.4093 66.2606 164.7392 67.0034 164.7392 C 68.52 164.7392 69.9748 162.9746 71.3366 159.4125 C 71.6152 161.309 72.0176 162.6778 72.5592 163.5023 C 73.0854 164.3269 73.8437 164.7392 74.8032 164.7392 C 76.4746 164.7392 77.9603 163.7991 79.2602 161.9192 L 78.734 161.5729 L 78.734 161.5729 Z" fill="#ffffff"/>
			<path d="M 81.2411 156.3452 L 80.2507 156.2957 C 79.2602 158.3736 78.2698 160.1381 77.2793 161.5729 L 77.6662 161.9686 C 77.9138 161.7048 78.3162 161.1606 78.8733 160.369 L 80.2507 158.4066 C 82.2316 159.3631 83.222 160.435 83.222 161.6388 C 83.222 162.2325 82.9744 162.7272 82.4947 163.1065 C 81.9994 163.5023 81.3804 163.6837 80.6376 163.6837 C 80.0185 163.6837 79.4769 163.5353 78.9971 163.2055 C 78.5019 162.8922 78.2698 162.5293 78.2698 162.1336 L 78.2698 161.7213 L 78.5793 161.5729 C 78.0067 161.9357 77.5734 162.3479 77.2793 162.8427 C 77.7281 163.4693 78.2543 163.9311 78.8733 164.2609 C 79.4769 164.5907 80.0495 164.7392 80.5757 164.7392 C 81.628 164.7392 82.5101 164.4093 83.1911 163.7332 C 83.872 163.0571 84.2125 162.2655 84.2125 161.342 C 84.2125 160.5834 83.9494 159.8413 83.4387 159.0827 C 82.9125 158.3241 82.2316 157.7469 81.3804 157.3512 L 81.2411 156.3452 L 81.2411 156.3452 ZM 85.7601 161.5729 C 85.0482 162.5623 84.4601 163.2385 83.9649 163.6342 C 83.4696 164.03 82.8816 164.2939 82.1852 164.4588 L 82.278 164.7392 C 83.8565 164.6072 85.1565 163.6672 86.1934 161.9522 L 85.7601 161.5729 L 85.7601 161.5729 Z" fill="#ffffff"/>
			<path d="M 95.6491 161.5729 C 95.2158 162.2655 94.7979 162.7767 94.4265 163.1395 C 94.0551 163.5023 93.7765 163.6837 93.5908 163.6837 C 93.3741 163.6837 93.2503 163.6342 93.2039 163.5188 C 93.142 163.4199 93.1265 163.09 93.1265 162.5293 L 93.1265 157.3512 L 91.8575 158.2087 C 91.3623 157.648 90.8516 157.3512 90.3564 157.3512 C 89.6445 157.3512 88.8243 157.7305 87.8802 158.4725 C 86.9362 159.2311 86.0386 160.2536 85.2029 161.5729 L 85.5898 161.9522 C 85.8993 161.342 86.1005 160.9627 86.1934 160.8143 L 86.1934 161.4904 C 86.1934 162.4799 86.441 163.2549 86.9362 163.8486 C 87.4314 164.4423 88.0969 164.7392 88.9326 164.7392 C 89.5052 164.7392 90.0159 164.6402 90.4802 164.4258 C 90.929 164.2114 91.4861 163.7497 92.1361 163.0571 C 92.1361 163.7497 92.2289 164.2114 92.3837 164.4258 C 92.5384 164.6402 92.7861 164.7392 93.1575 164.7392 C 94.117 164.7392 95.0919 163.8156 96.0979 161.9686 L 95.6491 161.5729 L 95.6491 161.5729 ZM 91.3623 162.8922 C 90.8361 163.4199 90.279 163.6837 89.6754 163.6837 C 88.9016 163.6837 88.2826 163.4858 87.8493 163.09 C 87.4005 162.6943 87.1838 162.1171 87.1838 161.375 C 87.1838 160.5504 87.4933 159.8413 88.1278 159.2641 C 88.7469 158.7034 89.4588 158.4066 90.248 158.4066 C 90.9754 158.4066 91.6099 158.6045 92.1361 159.0003 L 92.1361 161.9027 C 92.1361 162.0346 91.873 162.3644 91.3623 162.8922 L 91.3623 162.8922 Z" fill="#ffffff"/>
			<path d="M 99.0692 152.074 L 98.0788 153.6242 L 99.0692 155.2403 L 100.0597 153.6242 L 99.0692 152.074 L 99.0692 152.074 ZM 101.6227 161.5729 C 100.6632 162.9911 99.9668 163.6837 99.549 163.6837 C 99.3323 163.6837 99.193 163.6013 99.1466 163.4034 C 99.0847 163.2055 99.0692 162.8097 99.0692 162.1995 L 99.0692 157.3512 L 98.0788 158.1757 C 97.6145 159.2806 96.6241 160.4185 95.1074 161.5729 L 95.8657 161.9686 C 96.8252 161.1606 97.5681 160.3195 98.0788 159.462 L 98.0788 162.5293 C 98.0788 163.3539 98.1252 163.9311 98.249 164.2609 C 98.3728 164.5907 98.6669 164.7392 99.1311 164.7392 C 99.5335 164.7392 99.9978 164.5083 100.5239 164.03 C 101.0347 163.5518 101.5453 162.8592 102.0406 161.9686 L 101.6227 161.5729 L 101.6227 161.5729 Z" fill="#ffffff"/>
			<path d="M 104.0215 156.9224 C 105.8167 154.6301 107.1012 152.8656 107.844 151.6123 C 108.5868 150.3589 108.9737 149.3695 108.9737 148.6109 C 108.9737 148.0832 108.788 147.6379 108.4475 147.3081 C 108.1071 146.9783 107.6583 146.7969 107.1166 146.7969 C 106.0333 146.7969 105.0893 147.3246 104.2691 148.3635 C 103.4334 149.4025 103.031 150.7547 103.031 152.4368 L 103.031 157.8459 C 103.031 157.8954 102.8453 158.3076 102.4739 159.0992 C 102.1025 159.8908 101.6227 160.7153 101.0501 161.5729 L 101.4989 161.9851 C 102.1644 161.1111 102.6751 160.2701 103.031 159.462 L 103.031 161.7708 C 103.031 162.7272 103.2477 163.4528 103.712 163.9641 C 104.1608 164.4918 104.7953 164.7392 105.6155 164.7392 C 106.7143 164.7392 107.7202 164.2279 108.6178 163.2055 C 109.5154 162.183 109.9642 161.0616 109.9642 159.8743 C 109.9642 159.1487 109.7166 158.5385 109.2368 158.0603 C 108.7571 157.5985 108.1535 157.3512 107.4107 157.3512 C 106.0643 157.3512 104.9345 157.8624 104.0215 158.8848 L 104.0215 156.9224 L 104.0215 156.9224 ZM 104.0215 150.7218 C 104.0215 149.8642 104.2227 149.1716 104.656 148.6439 C 105.0738 148.1162 105.631 147.8523 106.3428 147.8523 C 106.8381 147.8523 107.225 148.0007 107.5345 148.2646 C 107.8285 148.5449 107.9833 148.9077 107.9833 149.353 C 107.9833 150.0291 107.7202 150.7877 107.2095 151.6288 C 106.6988 152.4863 105.631 153.8221 104.0215 155.6526 L 104.0215 150.7218 L 104.0215 150.7218 ZM 104.0215 159.9402 C 104.0215 159.8578 104.2536 159.5774 104.7334 159.1157 C 105.1976 158.6539 105.8476 158.4066 106.6524 158.4066 C 107.3333 158.4066 107.8904 158.6045 108.3237 159.0003 C 108.7571 159.396 108.9737 159.9402 108.9737 160.6164 C 108.9737 161.4409 108.6333 162.1665 107.9678 162.7767 C 107.2869 163.3869 106.5595 163.6837 105.7702 163.6837 C 104.5941 163.6837 104.0215 163.0735 104.0215 161.8367 L 104.0215 159.9402 L 104.0215 159.9402 ZM 111.4963 161.5729 C 110.4439 163.123 109.1285 164.063 107.5809 164.4093 L 107.6892 164.7392 C 109.4535 164.5412 110.8772 163.6013 111.9451 161.9192 L 111.4963 161.5729 L 111.4963 161.5729 Z" fill="#ffffff"/>
			<path d="M 113.926 156.9224 C 115.7212 154.6301 117.0057 152.8656 117.7485 151.6123 C 118.4913 150.3589 118.8782 149.3695 118.8782 148.6109 C 118.8782 148.0832 118.6925 147.6379 118.3521 147.3081 C 118.0116 146.9783 117.5628 146.7969 117.0211 146.7969 C 115.9378 146.7969 114.9938 147.3246 114.1736 148.3635 C 113.3379 149.4025 112.9355 150.7547 112.9355 152.4368 L 112.9355 157.8459 C 112.9355 157.8954 112.7498 158.3076 112.3784 159.0992 C 112.007 159.8908 111.5272 160.7153 110.9546 161.5729 L 111.4034 161.9851 C 112.0689 161.1111 112.5796 160.2701 112.9355 159.462 L 112.9355 161.7708 C 112.9355 162.7272 113.1522 163.4528 113.6165 163.9641 C 114.0653 164.4918 114.6998 164.7392 115.52 164.7392 C 116.6188 164.7392 117.6247 164.2279 118.5223 163.2055 C 119.4199 162.183 119.8687 161.0616 119.8687 159.8743 C 119.8687 159.1487 119.6211 158.5385 119.1413 158.0603 C 118.6616 157.5985 118.058 157.3512 117.3152 157.3512 C 115.9688 157.3512 114.839 157.8624 113.926 158.8848 L 113.926 156.9224 L 113.926 156.9224 ZM 113.926 150.7218 C 113.926 149.8642 114.1272 149.1716 114.5605 148.6439 C 114.9783 148.1162 115.5355 147.8523 116.2473 147.8523 C 116.7426 147.8523 117.1295 148.0007 117.439 148.2646 C 117.733 148.5449 117.8878 148.9077 117.8878 149.353 C 117.8878 150.0291 117.6247 150.7877 117.114 151.6288 C 116.6033 152.4863 115.5355 153.8221 113.926 155.6526 L 113.926 150.7218 L 113.926 150.7218 ZM 113.926 159.9402 C 113.926 159.8578 114.1581 159.5774 114.6379 159.1157 C 115.1021 158.6539 115.7521 158.4066 116.5569 158.4066 C 117.2378 158.4066 117.7949 158.6045 118.2282 159.0003 C 118.6616 159.396 118.8782 159.9402 118.8782 160.6164 C 118.8782 161.4409 118.5378 162.1665 117.8723 162.7767 C 117.1914 163.3869 116.464 163.6837 115.6747 163.6837 C 114.4986 163.6837 113.926 163.0735 113.926 161.8367 L 113.926 159.9402 L 113.926 159.9402 ZM 121.4008 161.5729 C 120.3484 163.123 119.033 164.063 117.4854 164.4093 L 117.5937 164.7392 C 119.358 164.5412 120.7817 163.6013 121.8496 161.9192 L 121.4008 161.5729 L 121.4008 161.5729 Z" fill="#ffffff"/>
			<path d="M 121.2615 162.3644 C 121.571 161.7378 121.8031 161.3255 121.9424 161.1606 C 121.8805 161.4904 121.8496 161.8697 121.8496 162.2655 C 121.8496 162.9911 122.0662 163.5848 122.5305 164.0465 C 122.9948 164.5083 123.5983 164.7392 124.3567 164.7392 C 125.5328 164.7392 126.5542 164.2609 127.4518 163.2714 C 128.3339 162.282 128.7827 161.1936 128.7827 160.0062 C 128.7827 159.1817 128.5506 158.522 128.1018 158.0603 C 127.6375 157.5985 127.0185 157.3512 126.2137 157.3512 C 125.3626 157.3512 124.5578 157.648 123.7995 158.2087 C 123.0257 158.7694 122.0508 160.0227 120.8591 161.9686 L 121.2615 162.3644 L 121.2615 162.3644 ZM 122.84 161.276 C 122.84 160.3855 123.0567 159.6764 123.521 159.1652 C 123.9852 158.6704 124.6043 158.4066 125.3781 158.4066 C 126.0899 158.4066 126.678 158.621 127.1268 159.0497 C 127.5601 159.4785 127.7923 160.0557 127.7923 160.8143 C 127.7923 161.6883 127.5447 162.3809 127.0804 162.9086 C 126.6006 163.4364 125.9661 163.6837 125.1614 163.6837 C 123.6138 163.6837 122.84 162.8922 122.84 161.276 L 122.84 161.276 ZM 130.2839 161.5729 C 129.278 163.1065 127.978 164.0465 126.384 164.4093 L 126.5078 164.7392 C 127.1887 164.6732 127.8697 164.4588 128.5661 164.096 C 129.247 163.7497 129.9898 163.0241 130.7636 161.9192 L 130.2839 161.5729 L 130.2839 161.5729 Z" fill="#ffffff"/>
			<path d="M 140.2193 161.5729 C 139.2908 162.9911 138.5789 163.6837 138.1146 163.6837 C 137.9134 163.6837 137.7896 163.5848 137.7587 163.3704 C 137.7122 163.1725 137.6968 162.7767 137.6968 162.216 L 137.6968 160.1216 C 137.6968 158.9013 137.5575 158.1427 137.3099 157.8294 C 137.0468 157.5161 136.6909 157.3512 136.2266 157.3512 C 135.7159 157.3512 135.2052 157.549 134.7099 157.9118 C 134.2147 158.2911 133.5493 159.0332 132.7445 160.1381 L 132.7445 157.3512 L 131.7541 158.0108 C 131.4755 159.0662 130.8255 160.2536 129.7732 161.5729 L 130.2684 161.9686 C 130.9184 161.1441 131.4136 160.3195 131.7541 159.495 L 131.7541 164.7392 L 132.7445 163.8321 L 132.7445 161.2595 C 132.7445 161.2101 132.9767 160.8967 133.4719 160.336 C 133.9671 159.7753 134.3385 159.3795 134.6171 159.1322 C 134.8802 158.9013 135.1278 158.7199 135.3599 158.588 C 135.5921 158.4725 135.8242 158.4066 136.0409 158.4066 C 136.4742 158.4066 136.7063 158.6869 136.7063 159.2146 L 136.7063 162.7272 C 136.7063 163.5848 136.7837 164.1455 136.9539 164.3763 C 137.1087 164.6237 137.3563 164.7392 137.6658 164.7392 C 138.6098 164.7392 139.6158 163.8156 140.6681 161.9686 L 140.2193 161.5729 L 140.2193 161.5729 Z" fill="#ffffff"/>
			<path d="M 143.1443 161.5729 L 141.6586 163.222 L 143.1443 164.7392 L 144.6299 163.156 L 143.1443 161.5729 L 143.1443 161.5729 Z" fill="#ffffff"/>
			<path d="M 156.0665 161.5729 C 155.138 162.9911 154.4261 163.6837 153.9618 163.6837 C 153.7606 163.6837 153.6368 163.5848 153.6059 163.3704 C 153.5594 163.1725 153.544 162.7767 153.544 162.216 L 153.544 160.1216 C 153.544 158.9013 153.4047 158.1427 153.1571 157.8294 C 152.894 157.5161 152.5381 157.3512 152.0738 157.3512 C 151.5631 157.3512 151.0524 157.549 150.5571 157.9118 C 150.0619 158.2911 149.3965 159.0332 148.5917 160.1381 L 148.5917 157.3512 L 147.6013 158.0108 C 147.3227 159.0662 146.6727 160.2536 145.6204 161.5729 L 146.1156 161.9686 C 146.7656 161.1441 147.2608 160.3195 147.6013 159.495 L 147.6013 164.7392 L 148.5917 163.8321 L 148.5917 161.2595 C 148.5917 161.2101 148.8239 160.8967 149.3191 160.336 C 149.8143 159.7753 150.1857 159.3795 150.4643 159.1322 C 150.7274 158.9013 150.975 158.7199 151.2071 158.588 C 151.4393 158.4725 151.6714 158.4066 151.8881 158.4066 C 152.3214 158.4066 152.5535 158.6869 152.5535 159.2146 L 152.5535 162.7272 C 152.5535 163.5848 152.6309 164.1455 152.8011 164.3763 C 152.9559 164.6237 153.2035 164.7392 153.513 164.7392 C 154.457 164.7392 155.463 163.8156 156.5153 161.9686 L 156.0665 161.5729 L 156.0665 161.5729 Z" fill="#ffffff"/>
			<path d="M 163.8818 161.5729 C 163.2782 162.2655 162.6128 162.7932 161.9009 163.156 C 161.189 163.5188 160.539 163.6837 159.9509 163.6837 C 158.7129 163.6837 157.9081 163.3704 157.5213 162.7107 C 160.8021 161.3915 162.458 160.0557 162.458 158.7034 C 162.458 158.3076 162.3187 157.9943 162.0402 157.7305 C 161.7616 157.4831 161.4057 157.3512 160.9724 157.3512 C 160.1831 157.3512 159.4248 157.6315 158.6819 158.1592 C 157.9391 158.7034 156.8867 159.8413 155.5249 161.5729 L 155.9118 161.9357 C 156.0665 161.6718 156.2832 161.375 156.5772 161.0616 C 156.5308 161.342 156.5153 161.6059 156.5153 161.8367 C 156.5153 162.7602 156.7629 163.4858 157.2891 163.9806 C 157.8153 164.4918 158.5117 164.7392 159.4093 164.7392 C 160.6164 164.7392 161.6069 164.5248 162.3652 164.0795 C 163.108 163.6342 163.8044 162.9251 164.4389 161.9357 L 163.8818 161.5729 L 163.8818 161.5729 ZM 157.1344 161.2265 C 157.0415 161.0287 157.0105 160.7648 157.0105 160.4515 C 157.0105 159.8908 157.2891 159.4125 157.8617 159.0168 C 158.4343 158.621 159.1307 158.4066 159.9664 158.4066 C 160.4307 158.4066 160.7866 158.489 161.0652 158.6539 C 161.3283 158.8189 161.4676 159.0168 161.4676 159.2806 C 161.4676 160.1216 160.0593 160.8802 157.2427 161.5729 C 157.2427 161.5564 157.1963 161.4409 157.1344 161.2265 L 157.1344 161.2265 Z" fill="#ffffff"/>
			<path d="M 170.9542 161.5729 C 169.5305 162.9911 168.3233 163.6837 167.3019 163.6837 C 166.8841 163.6837 166.6365 163.5848 166.5436 163.3869 C 166.4508 163.189 166.4198 162.7932 166.4198 162.1995 L 166.4198 158.3241 L 170.3816 152.5193 L 169.7471 152.0246 L 166.4198 156.8729 L 166.4198 149.9632 L 165.4294 151.4803 L 165.4294 157.4171 C 165.4294 157.4996 165.2591 157.8624 164.9342 158.5055 C 164.6092 159.1487 164.3306 159.6599 164.1139 160.0557 C 163.8818 160.4515 163.6032 160.9132 163.2937 161.4409 L 163.9282 161.9357 C 164.408 161.309 164.9032 160.5834 165.4294 159.7259 L 165.4294 163.0735 C 165.4294 163.6672 165.5068 164.0795 165.6925 164.3434 C 165.8782 164.6072 166.327 164.7392 167.0543 164.7392 C 168.571 164.7392 170.0102 163.8156 171.3721 161.9686 L 170.9542 161.5729 L 170.9542 161.5729 Z" fill="#ffffff"/>
		</g>
		<path id="%u591A%u89D2%u5F62" d="M 173.8462 144.6366 L 166.5355 144.3741 L 170.1766 137.8054 L 173.8462 144.6366 Z" fill="#ffffff"/>
		<path id="%u591A%u89D2%u5F622" d="M 173.8462 144.6366 L 179.8902 144.821 L 177.9327 150.7668 L 173.8462 144.6366 Z" fill="#ffffff"/>
	</g>
</svg>